# xmcd CD database file
#
# Track frame offsets:
#	150
#	32636
#	57891
#	86890
#	117644
#	149616
#	174296
#	206690
#	232611
#	258147
#
# Disc length: 3725 seconds
#
# Revision: 0
# Processed by: cddbd v1.5PL3 Copyright (c) Steve Scherf et al.
# Submitted via: CDex 1.51
#
DISCID=850e8b0a
DTITLE=Robert Nordmark sextet - In Motion
DYEAR=2003
DGENRE=Jazz
TTITLE0=In motion
TTITLE1=Round and around
TTITLE2=The things you said
TTITLE3=It doesn't matter when
TTITLE4=Us
TTITLE5=Hardcase
TTITLE6=Stilla
TTITLE7=Cavalla
TTITLE8=Our house
TTITLE9=Not what you think
EXTD=YEAR: 2003
EXTT0=
EXTT1=
EXTT2=
EXTT3=
EXTT4=
EXTT5=
EXTT6=
EXTT7=
EXTT8=
EXTT9=
PLAYORDER=
